<svg width="24" height="25" viewBox="0 0 24 25" fill="none" xmlns="http://www.w3.org/2000/svg">
<g clip-path="url(#clip0_58_24)">
<path d="M20.2219 0.5C21.6279 0.5 22.7619 1.637 22.8289 2.975V24.5L20.1519 22.227L18.6819 20.889L17.0779 19.491L17.7479 21.696H3.70992C2.30792 21.696 1.16992 20.631 1.16992 19.22V2.98C1.16992 1.642 2.30992 0.503 3.71492 0.503H20.2149L20.2219 0.5ZM14.1039 6.183H14.0739L13.8719 6.383C15.9449 6.983 16.9479 7.92 16.9479 7.92C15.6119 7.252 14.4079 6.918 13.2039 6.783C12.3339 6.648 11.4639 6.719 10.7289 6.783H10.5289C10.0589 6.783 9.05892 6.983 7.71892 7.518C7.25192 7.721 6.98392 7.854 6.98392 7.854C6.98392 7.854 7.98592 6.852 10.1939 6.317L10.0589 6.182C10.0589 6.182 8.38692 6.118 6.58192 7.452C6.58192 7.452 4.77692 10.596 4.77692 14.472C4.77692 14.472 5.77692 16.212 8.51992 16.278C8.51992 16.278 8.91992 15.745 9.32492 15.276C7.78492 14.808 7.18492 13.872 7.18492 13.872C7.18492 13.872 7.31892 13.938 7.51992 14.072H7.57992C7.60992 14.072 7.62392 14.087 7.63992 14.102V14.108C7.65592 14.124 7.66992 14.138 7.69992 14.138C8.02992 14.274 8.35992 14.408 8.62992 14.538C9.09592 14.74 9.69492 14.941 10.4299 15.074C11.3599 15.209 12.4259 15.274 13.6399 15.074C14.2399 14.939 14.8399 14.807 15.4399 14.539C15.8299 14.339 16.3099 14.139 16.8369 13.802C16.8369 13.802 16.2369 14.738 14.6319 15.206C14.9619 15.672 15.4269 16.206 15.4269 16.206C18.1709 16.146 19.2369 14.406 19.2969 14.48C19.2969 10.61 17.4819 7.46 17.4819 7.46C15.8469 6.246 14.3169 6.2 14.0469 6.2L14.1029 6.18L14.1039 6.183ZM14.2719 10.596C14.9749 10.596 15.5419 11.196 15.5419 11.931C15.5419 12.671 14.9719 13.271 14.2719 13.271C13.5719 13.271 13.0019 12.671 13.0019 11.937C13.0039 11.197 13.5749 10.599 14.2719 10.599V10.596ZM9.72892 10.596C10.4289 10.596 10.9949 11.196 10.9949 11.931C10.9949 12.671 10.4249 13.271 9.72492 13.271C9.02492 13.271 8.45492 12.671 8.45492 11.937C8.45492 11.197 9.02492 10.599 9.72492 10.599L9.72892 10.596Z" fill="white"/>
</g>
<defs>
<clipPath id="clip0_58_24">
<rect width="24" height="24" fill="white" transform="translate(0 0.5)"/>
</clipPath>
</defs>
</svg>
