<svg width="32" height="33" viewBox="0 0 32 33" fill="none" xmlns="http://www.w3.org/2000/svg">
<g filter="url(#filter0_d_13_9)">
<path d="M4 10.5H28C29.104 10.5 30 9.604 30 8.5C30 7.396 29.104 6.5 28 6.5H4C2.896 6.5 2 7.396 2 8.5C2 9.604 2.896 10.5 4 10.5ZM28 14.5H4C2.896 14.5 2 15.396 2 16.5C2 17.604 2.896 18.5 4 18.5H28C29.104 18.5 30 17.604 30 16.5C30 15.396 29.104 14.5 28 14.5ZM28 22.5H4C2.896 22.5 2 23.396 2 24.5C2 25.604 2.896 26.5 4 26.5H28C29.104 26.5 30 25.604 30 24.5C30 23.396 29.104 22.5 28 22.5Z" fill="white"/>
</g>
<defs>
<filter id="filter0_d_13_9" x="-2" y="0.5" width="36" height="36" filterUnits="userSpaceOnUse" color-interpolation-filters="sRGB">
<feFlood flood-opacity="0" result="BackgroundImageFix"/>
<feColorMatrix in="SourceAlpha" type="matrix" values="0 0 0 0 0 0 0 0 0 0 0 0 0 0 0 0 0 0 127 0" result="hardAlpha"/>
<feOffset dy="2"/>
<feGaussianBlur stdDeviation="1"/>
<feComposite in2="hardAlpha" operator="out"/>
<feColorMatrix type="matrix" values="0 0 0 0 0 0 0 0 0 0 0 0 0 0 0 0 0 0 0.25 0"/>
<feBlend mode="normal" in2="BackgroundImageFix" result="effect1_dropShadow_13_9"/>
<feBlend mode="normal" in="SourceGraphic" in2="effect1_dropShadow_13_9" result="shape"/>
</filter>
</defs>
</svg>
