<svg width="35" height="35" viewBox="0 0 35 35" fill="none" xmlns="http://www.w3.org/2000/svg">
<g clip-path="url(#clip0_50_25)">
<path d="M27.4981 21.3267C29.1176 18.2312 29.5748 14.658 28.7868 11.2545C27.9988 7.85096 26.0177 4.8423 23.2025 2.77362C20.3873 0.70494 16.9242 -0.286906 13.4407 -0.0222065C9.95717 0.242493 6.68371 1.74623 4.21339 4.21654C1.74308 6.68685 0.23935 9.96031 -0.0253498 13.4438C-0.29005 16.9273 0.701797 20.3904 2.77048 23.2056C4.83916 26.0208 7.84782 28.0019 11.2513 28.7899C14.6548 29.578 18.228 29.1208 21.3235 27.5012L27.5273 33.7064C28.3453 34.5262 29.4555 34.9874 30.6136 34.9887C31.7717 34.9899 32.8828 34.531 33.7026 33.713C34.5223 32.895 34.9836 31.7848 34.9848 30.6267C34.986 29.4686 34.5272 28.3575 33.7091 27.5377L27.4981 21.3267ZM2.91643 14.5833C2.91643 12.2759 3.60067 10.0202 4.88262 8.10167C6.16457 6.1831 7.98665 4.68775 10.1185 3.80473C12.2503 2.92171 14.596 2.69067 16.8592 3.14083C19.1223 3.59099 21.2011 4.70213 22.8327 6.33374C24.4643 7.96535 25.5754 10.0442 26.0256 12.3073C26.4758 14.5704 26.2447 16.9162 25.3617 19.048C24.4787 21.1798 22.9833 23.0019 21.0648 24.2838C19.1462 25.5657 16.8905 26.25 14.5831 26.25C11.49 26.2465 8.52453 25.0162 6.33735 22.8291C4.15018 20.6419 2.9199 17.6764 2.91643 14.5833ZM31.6456 31.6575C31.373 31.9247 31.0065 32.0744 30.6248 32.0744C30.243 32.0744 29.8765 31.9247 29.6039 31.6575L23.8187 25.8708C24.565 25.2561 25.2488 24.5693 25.8604 23.8204L31.6529 29.6042C31.7901 29.7378 31.899 29.8979 31.9729 30.0746C32.0469 30.2514 32.0843 30.4413 32.0831 30.6329C32.0819 30.8245 32.042 31.0139 31.9658 31.1897C31.8896 31.3655 31.7787 31.5241 31.6398 31.656L31.6456 31.6575Z" fill="#F3E5E5" fill-opacity="0.95"/>
<path d="M14.5835 5.83334C12.2636 5.83566 10.0393 6.75828 8.39887 8.39872C6.75843 10.0392 5.83581 12.2634 5.8335 14.5833C5.8335 14.9701 5.98714 15.341 6.26063 15.6145C6.53412 15.888 6.90506 16.0417 7.29183 16.0417C7.6786 16.0417 8.04954 15.888 8.32303 15.6145C8.59652 15.341 8.75016 14.9701 8.75016 14.5833C8.75016 13.0362 9.36474 11.5525 10.4587 10.4586C11.5527 9.36459 13.0364 8.75001 14.5835 8.75001C14.9703 8.75001 15.3412 8.59636 15.6147 8.32287C15.8882 8.04938 16.0418 7.67845 16.0418 7.29168C16.0418 6.9049 15.8882 6.53397 15.6147 6.26048C15.3412 5.98699 14.9703 5.83334 14.5835 5.83334Z" fill="#F3E5E5" fill-opacity="0.95"/>
</g>
<defs>
<clipPath id="clip0_50_25">
<rect width="35" height="35" fill="white"/>
</clipPath>
</defs>
</svg>
